{
    "asset" : {
        "generator" : "Khronos glTF Blender I/O v3.4.50",
        "version" : "2.0"
    },
    "scene" : 0,
    "scenes" : [
        {
            "name" : "Scene",
            "nodes" : [
                2
            ]
        }
    ],
    "nodes" : [
        {
            "mesh" : 0,
            "name" : "base",
            "translation" : [
                0.23609565198421478,
                -0.8928712010383606,
                1.077789068222046
            ]
        },
        {
            "mesh" : 1,
            "name" : "columns",
            "translation" : [
                0.23609565198421478,
                -0.8928711414337158,
                0.06266450881958008
            ]
        },
        {
            "children" : [
                0,
                1
            ],
            "name" : "column_grp",
            "scale" : [
                100,
                100,
                100
            ]
        }
    ],
    "materials" : [
        {
            "doubleSided" : true,
            "name" : "mable_2.001",
            "normalTexture" : {
                "index" : 0
            },
            "pbrMetallicRoughness" : {
                "baseColorTexture" : {
                    "index" : 1
                },
                "metallicRoughnessTexture" : {
                    "index" : 2
                }
            }
        },
        {
            "doubleSided" : true,
            "name" : "marble_1.001",
            "normalTexture" : {
                "index" : 3
            },
            "pbrMetallicRoughness" : {
                "baseColorTexture" : {
                    "index" : 4
                },
                "metallicRoughnessTexture" : {
                    "index" : 5
                }
            }
        }
    ],
    "meshes" : [
        {
            "name" : "Cube",
            "primitives" : [
                {
                    "attributes" : {
                        "POSITION" : 0,
                        "TEXCOORD_0" : 1,
                        "NORMAL" : 2
                    },
                    "indices" : 3,
                    "material" : 0
                }
            ]
        },
        {
            "name" : "Cube.001",
            "primitives" : [
                {
                    "attributes" : {
                        "POSITION" : 4,
                        "TEXCOORD_0" : 5,
                        "NORMAL" : 6
                    },
                    "indices" : 7,
                    "material" : 1
                }
            ]
        }
    ],
    "textures" : [
        {
            "sampler" : 0,
            "source" : 0
        },
        {
            "sampler" : 0,
            "source" : 1
        },
        {
            "sampler" : 0,
            "source" : 2
        },
        {
            "sampler" : 0,
            "source" : 3
        },
        {
            "sampler" : 0,
            "source" : 4
        },
        {
            "sampler" : 0,
            "source" : 5
        }
    ],
    "images" : [
        {
            "mimeType" : "image/png",
            "name" : "Mable2_Normal",
            "uri" : "Mable2_Normal.png"
        },
        {
            "mimeType" : "image/png",
            "name" : "Mable2_bColor",
            "uri" : "Mable2_bColor.png"
        },
        {
            "mimeType" : "image/png",
            "name" : "Mable2_Metallic-Mable2_Roughness",
            "uri" : "Mable2_Metallic-Mable2_Roughness.png"
        },
        {
            "mimeType" : "image/png",
            "name" : "Marble1_Normal",
            "uri" : "Marble1_Normal.png"
        },
        {
            "mimeType" : "image/png",
            "name" : "Marble1_bcolor",
            "uri" : "Marble1_bcolor.png"
        },
        {
            "mimeType" : "image/png",
            "name" : "Marble1_Metallic-Marble1_Roughness",
            "uri" : "Marble1_Metallic-Marble1_Roughness.png"
        }
    ],
    "accessors" : [
        {
            "bufferView" : 0,
            "componentType" : 5126,
            "count" : 4162,
            "max" : [
                11.149694442749023,
                1.9100810289382935,
                2.04520845413208
            ],
            "min" : [
                -11.621885299682617,
                0.8928711414337158,
                -4.200786590576172
            ],
            "type" : "VEC3"
        },
        {
            "bufferView" : 1,
            "componentType" : 5126,
            "count" : 4162,
            "type" : "VEC2"
        },
        {
            "bufferView" : 2,
            "componentType" : 5126,
            "count" : 4162,
            "type" : "VEC3"
        },
        {
            "bufferView" : 3,
            "componentType" : 5123,
            "count" : 23808,
            "type" : "SCALAR"
        },
        {
            "bufferView" : 4,
            "componentType" : 5126,
            "count" : 35628,
            "max" : [
                9.722895622253418,
                11.86752986907959,
                1.2421408891677856
            ],
            "min" : [
                -9.008060455322266,
                1.938978910446167,
                -1.243656873703003
            ],
            "type" : "VEC3"
        },
        {
            "bufferView" : 5,
            "componentType" : 5126,
            "count" : 35628,
            "type" : "VEC2"
        },
        {
            "bufferView" : 6,
            "componentType" : 5126,
            "count" : 35628,
            "type" : "VEC3"
        },
        {
            "bufferView" : 7,
            "componentType" : 5123,
            "count" : 181980,
            "type" : "SCALAR"
        }
    ],
    "bufferViews" : [
        {
            "buffer" : 0,
            "byteLength" : 49944,
            "byteOffset" : 0,
            "target" : 34962
        },
        {
            "buffer" : 0,
            "byteLength" : 33296,
            "byteOffset" : 49944,
            "target" : 34962
        },
        {
            "buffer" : 0,
            "byteLength" : 49944,
            "byteOffset" : 83240,
            "target" : 34962
        },
        {
            "buffer" : 0,
            "byteLength" : 47616,
            "byteOffset" : 133184,
            "target" : 34963
        },
        {
            "buffer" : 0,
            "byteLength" : 427536,
            "byteOffset" : 180800,
            "target" : 34962
        },
        {
            "buffer" : 0,
            "byteLength" : 285024,
            "byteOffset" : 608336,
            "target" : 34962
        },
        {
            "buffer" : 0,
            "byteLength" : 427536,
            "byteOffset" : 893360,
            "target" : 34962
        },
        {
            "buffer" : 0,
            "byteLength" : 363960,
            "byteOffset" : 1320896,
            "target" : 34963
        }
    ],
    "samplers" : [
        {
            "magFilter" : 9729,
            "minFilter" : 9987
        }
    ],
    "buffers" : [
        {
            "byteLength" : 1684856,
            "uri" : "colonne.bin"
        }
    ]
}
