{
	"asset":{
		"generator":"Khronos glTF Blender I/O v5.1.18",
		"version":"2.0"
	},
	"scene":0,
	"scenes":[
		{
			"name":"Scene",
			"nodes":[
				0
			]
		}
	],
	"nodes":[
		{
			"mesh":0,
			"name":"cake_pop_grp"
		}
	],
	"materials":[
		{
			"doubleSided":true,
			"emissiveFactor":[
				0.40578386187553406,
				0.04232596606016159,
				0.35210299491882324
			],
			"name":"cake_pop_mat.001",
			"normalTexture":{
				"index":0
			},
			"pbrMetallicRoughness":{
				"baseColorTexture":{
					"index":1
				},
				"metallicRoughnessTexture":{
					"index":2
				}
			}
		}
	],
	"meshes":[
		{
			"name":"Mesh",
			"primitives":[
				{
					"attributes":{
						"POSITION":0,
						"NORMAL":1,
						"TEXCOORD_0":2
					},
					"indices":3,
					"material":0
				}
			]
		}
	],
	"textures":[
		{
			"sampler":0,
			"source":0
		},
		{
			"sampler":0,
			"source":1
		},
		{
			"sampler":0,
			"source":2
		}
	],
	"images":[
		{
			"mimeType":"image/png",
			"name":"Cake_Pop_norm",
			"uri":"Cake_Pop_norm.png"
		},
		{
			"mimeType":"image/png",
			"name":"Cake_Pop_bcolor",
			"uri":"Cake_Pop_bcolor.png"
		},
		{
			"mimeType":"image/png",
			"name":"Cake_Pop_metal-Cake_Pop_rough",
			"uri":"Cake_Pop_metal-Cake_Pop_rough.png"
		}
	],
	"accessors":[
		{
			"bufferView":0,
			"componentType":5126,
			"count":2598,
			"max":[
				1.8240327835083008,
				13.442249298095703,
				1.827727198600769
			],
			"min":[
				-1.8243026733398438,
				1.7474405467510223e-05,
				-1.8261545896530151
			],
			"type":"VEC3"
		},
		{
			"bufferView":1,
			"componentType":5126,
			"count":2598,
			"type":"VEC3"
		},
		{
			"bufferView":2,
			"componentType":5126,
			"count":2598,
			"type":"VEC2"
		},
		{
			"bufferView":3,
			"componentType":5123,
			"count":13950,
			"type":"SCALAR"
		}
	],
	"bufferViews":[
		{
			"buffer":0,
			"byteLength":31176,
			"byteOffset":0,
			"target":34962
		},
		{
			"buffer":0,
			"byteLength":31176,
			"byteOffset":31176,
			"target":34962
		},
		{
			"buffer":0,
			"byteLength":20784,
			"byteOffset":62352,
			"target":34962
		},
		{
			"buffer":0,
			"byteLength":27900,
			"byteOffset":83136,
			"target":34963
		}
	],
	"samplers":[
		{
			"magFilter":9729,
			"minFilter":9987
		}
	],
	"buffers":[
		{
			"byteLength":111036,
			"uri":"Cake_%20Pop.bin"
		}
	]
}
