{
	"asset":{
		"generator":"Khronos glTF Blender I/O v5.1.18",
		"version":"2.0"
	},
	"scene":0,
	"scenes":[
		{
			"name":"Scene",
			"nodes":[
				6
			]
		}
	],
	"nodes":[
		{
			"mesh":0,
			"name":"_gltfNode_0"
		},
		{
			"mesh":1,
			"name":"_gltfNode_1"
		},
		{
			"mesh":2,
			"name":"_gltfNode_2"
		},
		{
			"mesh":3,
			"name":"_gltfNode_3"
		},
		{
			"mesh":4,
			"name":"_gltfNode_4"
		},
		{
			"mesh":5,
			"name":"_gltfNode_5"
		},
		{
			"children":[
				0,
				1,
				2,
				3,
				4,
				5
			],
			"name":"GLTF Converted Scene",
			"rotation":[
				-0.70710688829422,
				0,
				0,
				0.7071066498756409
			]
		}
	],
	"materials":[
		{
			"doubleSided":true,
			"name":"Material_0",
			"pbrMetallicRoughness":{
				"baseColorFactor":[
					0.800000011920929,
					0.800000011920929,
					0.800000011920929,
					1
				]
			}
		},
		{
			"doubleSided":true,
			"name":"Material.002",
			"pbrMetallicRoughness":{
				"baseColorTexture":{
					"index":0
				},
				"metallicFactor":0,
				"roughnessFactor":0.5
			}
		},
		{
			"doubleSided":true,
			"name":"Material.004",
			"pbrMetallicRoughness":{
				"baseColorTexture":{
					"index":1
				},
				"metallicFactor":0,
				"roughnessFactor":0.5
			}
		},
		{
			"doubleSided":true,
			"name":"Material.001",
			"pbrMetallicRoughness":{
				"baseColorTexture":{
					"index":2
				},
				"metallicFactor":0,
				"roughnessFactor":0.5
			}
		},
		{
			"doubleSided":true,
			"name":"Material.003",
			"pbrMetallicRoughness":{
				"baseColorTexture":{
					"index":3
				},
				"metallicFactor":0,
				"roughnessFactor":0.5
			}
		},
		{
			"doubleSided":true,
			"name":"Material.005",
			"pbrMetallicRoughness":{
				"metallicFactor":0,
				"roughnessFactor":0
			}
		}
	],
	"meshes":[
		{
			"name":"Mesh_0",
			"primitives":[
				{
					"attributes":{
						"POSITION":0,
						"NORMAL":1,
						"TEXCOORD_0":2
					},
					"indices":3,
					"material":0
				}
			]
		},
		{
			"name":"Mesh_1",
			"primitives":[
				{
					"attributes":{
						"POSITION":4,
						"NORMAL":5,
						"TEXCOORD_0":6
					},
					"indices":7,
					"material":1
				}
			]
		},
		{
			"name":"Mesh_2",
			"primitives":[
				{
					"attributes":{
						"POSITION":8,
						"NORMAL":9,
						"TEXCOORD_0":10
					},
					"indices":11,
					"material":2
				}
			]
		},
		{
			"name":"Mesh_3",
			"primitives":[
				{
					"attributes":{
						"POSITION":12,
						"NORMAL":13,
						"TEXCOORD_0":14
					},
					"indices":15,
					"material":3
				}
			]
		},
		{
			"name":"Mesh_4",
			"primitives":[
				{
					"attributes":{
						"POSITION":16,
						"NORMAL":17,
						"TEXCOORD_0":18
					},
					"indices":19,
					"material":4
				}
			]
		},
		{
			"name":"Mesh_5",
			"primitives":[
				{
					"attributes":{
						"POSITION":20,
						"NORMAL":21,
						"TEXCOORD_0":22
					},
					"indices":23,
					"material":4
				},
				{
					"attributes":{
						"POSITION":24,
						"NORMAL":25,
						"TEXCOORD_0":26
					},
					"indices":27,
					"material":5
				}
			]
		}
	],
	"textures":[
		{
			"sampler":0,
			"source":0
		},
		{
			"sampler":0,
			"source":1
		},
		{
			"sampler":0,
			"source":2
		},
		{
			"sampler":0,
			"source":3
		}
	],
	"images":[
		{
			"mimeType":"image/png",
			"name":"e23420d6eff54c3db3d96e3fc1ddd73b_RGB_T_Chr_033_01_Hair_D",
			"uri":"e23420d6eff54c3db3d96e3fc1ddd73b_RGB_T_Chr_033_01_Hair_D.png"
		},
		{
			"mimeType":"image/png",
			"name":"8e4038c3b67f41a786894ef2a0f402a8_RGB_T_Wpn_01_swk_006_D",
			"uri":"8e4038c3b67f41a786894ef2a0f402a8_RGB_T_Wpn_01_swk_006_D.png"
		},
		{
			"mimeType":"image/png",
			"name":"a9a3b12bbf544d2aa106f2e38d11ee6c_RGB_T_Chr_033_01_Body_D",
			"uri":"a9a3b12bbf544d2aa106f2e38d11ee6c_RGB_T_Chr_033_01_Body_D.png"
		},
		{
			"mimeType":"image/png",
			"name":"3fdc112edced4578852b61cbfa8a6b83_RGB_T_Chr_033_01_Face_D",
			"uri":"3fdc112edced4578852b61cbfa8a6b83_RGB_T_Chr_033_01_Face_D.png"
		}
	],
	"accessors":[
		{
			"bufferView":0,
			"componentType":5126,
			"count":355,
			"max":[
				0.5840177536010742,
				0.22670377790927887,
				1.649857521057129
			],
			"min":[
				-0.5840193629264832,
				-0.09640739858150482,
				0.5415655374526978
			],
			"type":"VEC3"
		},
		{
			"bufferView":1,
			"componentType":5126,
			"count":355,
			"type":"VEC3"
		},
		{
			"bufferView":2,
			"componentType":5126,
			"count":355,
			"type":"VEC2"
		},
		{
			"bufferView":3,
			"componentType":5123,
			"count":1530,
			"type":"SCALAR"
		},
		{
			"bufferView":4,
			"componentType":5126,
			"count":3681,
			"max":[
				0.1671089231967926,
				0.30351200699806213,
				1.739111304283142
			],
			"min":[
				-0.17939700186252594,
				-0.1436920017004013,
				1.313539981842041
			],
			"type":"VEC3"
		},
		{
			"bufferView":5,
			"componentType":5126,
			"count":3681,
			"type":"VEC3"
		},
		{
			"bufferView":6,
			"componentType":5126,
			"count":3681,
			"type":"VEC2"
		},
		{
			"bufferView":7,
			"componentType":5123,
			"count":14697,
			"type":"SCALAR"
		},
		{
			"bufferView":8,
			"componentType":5126,
			"count":1386,
			"max":[
				-0.5183149576187134,
				0.031956031918525696,
				1.1913331747055054
			],
			"min":[
				-0.6922529935836792,
				-0.03195599839091301,
				0.0338749997317791
			],
			"type":"VEC3"
		},
		{
			"bufferView":9,
			"componentType":5126,
			"count":1386,
			"type":"VEC3"
		},
		{
			"bufferView":10,
			"componentType":5126,
			"count":1386,
			"type":"VEC2"
		},
		{
			"bufferView":11,
			"componentType":5123,
			"count":3618,
			"type":"SCALAR"
		},
		{
			"bufferView":12,
			"componentType":5126,
			"count":10347,
			"max":[
				0.7666262984275818,
				0.2857150733470917,
				1.558058261871338
			],
			"min":[
				-0.7666270136833191,
				-0.18722499907016754,
				0.00017493500490672886
			],
			"type":"VEC3"
		},
		{
			"bufferView":13,
			"componentType":5126,
			"count":10347,
			"type":"VEC3"
		},
		{
			"bufferView":14,
			"componentType":5126,
			"count":10347,
			"type":"VEC2"
		},
		{
			"bufferView":15,
			"componentType":5123,
			"count":43410,
			"type":"SCALAR"
		},
		{
			"bufferView":16,
			"componentType":5126,
			"count":1615,
			"max":[
				0.09278737008571625,
				0.02388693392276764,
				1.6498578786849976
			],
			"min":[
				-0.0927826389670372,
				-0.12263300269842148,
				1.4364500045776367
			],
			"type":"VEC3"
		},
		{
			"bufferView":17,
			"componentType":5126,
			"count":1615,
			"type":"VEC3"
		},
		{
			"bufferView":18,
			"componentType":5126,
			"count":1615,
			"type":"VEC2"
		},
		{
			"bufferView":19,
			"componentType":5123,
			"count":7314,
			"type":"SCALAR"
		},
		{
			"bufferView":20,
			"componentType":5126,
			"count":202,
			"max":[
				0.06344571709632874,
				-0.07745684683322906,
				1.5590578317642212
			],
			"min":[
				-0.06344662606716156,
				-0.0867532417178154,
				1.526630163192749
			],
			"type":"VEC3"
		},
		{
			"bufferView":21,
			"componentType":5126,
			"count":202,
			"type":"VEC3"
		},
		{
			"bufferView":22,
			"componentType":5126,
			"count":202,
			"type":"VEC2"
		},
		{
			"bufferView":23,
			"componentType":5123,
			"count":1080,
			"type":"SCALAR"
		},
		{
			"bufferView":24,
			"componentType":5126,
			"count":80,
			"max":[
				0.07877632230520248,
				-0.05883276090025902,
				1.5583088397979736
			],
			"min":[
				-0.0787772387266159,
				-0.08677113056182861,
				1.5174599885940552
			],
			"type":"VEC3"
		},
		{
			"bufferView":25,
			"componentType":5126,
			"count":80,
			"type":"VEC3"
		},
		{
			"bufferView":26,
			"componentType":5126,
			"count":80,
			"type":"VEC2"
		},
		{
			"bufferView":27,
			"componentType":5123,
			"count":348,
			"type":"SCALAR"
		}
	],
	"bufferViews":[
		{
			"buffer":0,
			"byteLength":4260,
			"byteOffset":0,
			"target":34962
		},
		{
			"buffer":0,
			"byteLength":4260,
			"byteOffset":4260,
			"target":34962
		},
		{
			"buffer":0,
			"byteLength":2840,
			"byteOffset":8520,
			"target":34962
		},
		{
			"buffer":0,
			"byteLength":3060,
			"byteOffset":11360,
			"target":34963
		},
		{
			"buffer":0,
			"byteLength":44172,
			"byteOffset":14420,
			"target":34962
		},
		{
			"buffer":0,
			"byteLength":44172,
			"byteOffset":58592,
			"target":34962
		},
		{
			"buffer":0,
			"byteLength":29448,
			"byteOffset":102764,
			"target":34962
		},
		{
			"buffer":0,
			"byteLength":29394,
			"byteOffset":132212,
			"target":34963
		},
		{
			"buffer":0,
			"byteLength":16632,
			"byteOffset":161608,
			"target":34962
		},
		{
			"buffer":0,
			"byteLength":16632,
			"byteOffset":178240,
			"target":34962
		},
		{
			"buffer":0,
			"byteLength":11088,
			"byteOffset":194872,
			"target":34962
		},
		{
			"buffer":0,
			"byteLength":7236,
			"byteOffset":205960,
			"target":34963
		},
		{
			"buffer":0,
			"byteLength":124164,
			"byteOffset":213196,
			"target":34962
		},
		{
			"buffer":0,
			"byteLength":124164,
			"byteOffset":337360,
			"target":34962
		},
		{
			"buffer":0,
			"byteLength":82776,
			"byteOffset":461524,
			"target":34962
		},
		{
			"buffer":0,
			"byteLength":86820,
			"byteOffset":544300,
			"target":34963
		},
		{
			"buffer":0,
			"byteLength":19380,
			"byteOffset":631120,
			"target":34962
		},
		{
			"buffer":0,
			"byteLength":19380,
			"byteOffset":650500,
			"target":34962
		},
		{
			"buffer":0,
			"byteLength":12920,
			"byteOffset":669880,
			"target":34962
		},
		{
			"buffer":0,
			"byteLength":14628,
			"byteOffset":682800,
			"target":34963
		},
		{
			"buffer":0,
			"byteLength":2424,
			"byteOffset":697428,
			"target":34962
		},
		{
			"buffer":0,
			"byteLength":2424,
			"byteOffset":699852,
			"target":34962
		},
		{
			"buffer":0,
			"byteLength":1616,
			"byteOffset":702276,
			"target":34962
		},
		{
			"buffer":0,
			"byteLength":2160,
			"byteOffset":703892,
			"target":34963
		},
		{
			"buffer":0,
			"byteLength":960,
			"byteOffset":706052,
			"target":34962
		},
		{
			"buffer":0,
			"byteLength":960,
			"byteOffset":707012,
			"target":34962
		},
		{
			"buffer":0,
			"byteLength":640,
			"byteOffset":707972,
			"target":34962
		},
		{
			"buffer":0,
			"byteLength":696,
			"byteOffset":708612,
			"target":34963
		}
	],
	"samplers":[
		{
			"magFilter":9729,
			"minFilter":9987
		}
	],
	"buffers":[
		{
			"byteLength":709308,
			"uri":"Ch_03_01.bin"
		}
	]
}
