{
	"asset":{
		"generator":"Khronos glTF Blender I/O v5.1.18",
		"version":"2.0"
	},
	"extensionsUsed":[
		"KHR_materials_specular",
		"KHR_materials_sheen",
		"KHR_materials_ior"
	],
	"scene":0,
	"scenes":[
		{
			"name":"Scene",
			"nodes":[
				0,
				1,
				2,
				3,
				4,
				5
			]
		}
	],
	"nodes":[
		{
			"mesh":0,
			"name":"Legs"
		},
		{
			"mesh":1,
			"name":"Arms"
		},
		{
			"mesh":2,
			"name":"Body"
		},
		{
			"mesh":3,
			"name":"Head"
		},
		{
			"mesh":4,
			"name":"Eyes"
		},
		{
			"mesh":5,
			"name":"Mouth_Idle"
		}
	],
	"materials":[
		{
			"doubleSided":true,
			"extensions":{
				"KHR_materials_specular":{
					"specularFactor":0.23999999463558197
				},
				"KHR_materials_sheen":{
					"sheenColorFactor":[
						1.0,
						1.0,
						1.0
					],
					"sheenRoughnessFactor":0.5
				},
				"KHR_materials_ior":{
					"ior":1.4500000476837158
				}
			},
			"name":"Penguin_Mat",
			"normalTexture":{
				"index":0
			},
			"pbrMetallicRoughness":{
				"baseColorTexture":{
					"index":1
				},
				"metallicRoughnessTexture":{
					"index":2
				}
			}
		}
	],
	"meshes":[
		{
			"name":"Legs",
			"primitives":[
				{
					"attributes":{
						"POSITION":0,
						"NORMAL":1,
						"TEXCOORD_0":2
					},
					"indices":3,
					"material":0
				}
			]
		},
		{
			"name":"Arms",
			"primitives":[
				{
					"attributes":{
						"POSITION":4,
						"NORMAL":5,
						"TEXCOORD_0":6
					},
					"indices":7,
					"material":0
				}
			]
		},
		{
			"name":"Body",
			"primitives":[
				{
					"attributes":{
						"POSITION":8,
						"NORMAL":9,
						"TEXCOORD_0":10
					},
					"indices":11,
					"material":0
				}
			]
		},
		{
			"name":"Head",
			"primitives":[
				{
					"attributes":{
						"POSITION":12,
						"NORMAL":13,
						"TEXCOORD_0":14
					},
					"indices":15,
					"material":0
				}
			]
		},
		{
			"name":"Eyes",
			"primitives":[
				{
					"attributes":{
						"POSITION":16,
						"NORMAL":17,
						"TEXCOORD_0":18
					},
					"indices":19,
					"material":0
				}
			]
		},
		{
			"name":"Mouth_Idle",
			"primitives":[
				{
					"attributes":{
						"POSITION":20,
						"NORMAL":21,
						"TEXCOORD_0":22
					},
					"indices":23,
					"material":0
				}
			]
		}
	],
	"textures":[
		{
			"sampler":0,
			"source":0
		},
		{
			"sampler":0,
			"source":1
		},
		{
			"sampler":0,
			"source":2
		}
	],
	"images":[
		{
			"mimeType":"image/png",
			"name":"Penguin_Normal",
			"uri":"Penguin_Normal.png"
		},
		{
			"mimeType":"image/png",
			"name":"Penguin_Albedo",
			"uri":"Penguin_Albedo.png"
		},
		{
			"mimeType":"image/png",
			"name":"Penguin_Metalness-Penguin_Roughness",
			"uri":"Penguin_Metalness-Penguin_Roughness.png"
		}
	],
	"accessors":[
		{
			"bufferView":0,
			"componentType":5126,
			"count":1174,
			"max":[
				32.50028610229492,
				34.48747253417969,
				0
			],
			"min":[
				-32.50028610229492,
				-8.20682430267334,
				-30.117841720581055
			],
			"type":"VEC3"
		},
		{
			"bufferView":1,
			"componentType":5126,
			"count":1174,
			"type":"VEC3"
		},
		{
			"bufferView":2,
			"componentType":5126,
			"count":1174,
			"type":"VEC2"
		},
		{
			"bufferView":3,
			"componentType":5123,
			"count":6696,
			"type":"SCALAR"
		},
		{
			"bufferView":4,
			"componentType":5126,
			"count":1676,
			"max":[
				56.830902099609375,
				16.34014892578125,
				-23.621492385864258
			],
			"min":[
				-56.830902099609375,
				-9.000548362731934,
				-92.7967529296875
			],
			"type":"VEC3"
		},
		{
			"bufferView":5,
			"componentType":5126,
			"count":1676,
			"type":"VEC3"
		},
		{
			"bufferView":6,
			"componentType":5126,
			"count":1676,
			"type":"VEC2"
		},
		{
			"bufferView":7,
			"componentType":5123,
			"count":9468,
			"type":"SCALAR"
		},
		{
			"bufferView":8,
			"componentType":5126,
			"count":1869,
			"max":[
				32.68412399291992,
				24.7502498626709,
				-16.459857940673828
			],
			"min":[
				-32.68412399291992,
				-27.292617797851562,
				-92.02897644042969
			],
			"type":"VEC3"
		},
		{
			"bufferView":9,
			"componentType":5126,
			"count":1869,
			"type":"VEC3"
		},
		{
			"bufferView":10,
			"componentType":5126,
			"count":1869,
			"type":"VEC2"
		},
		{
			"bufferView":11,
			"componentType":5123,
			"count":11112,
			"type":"SCALAR"
		},
		{
			"bufferView":12,
			"componentType":5126,
			"count":463,
			"max":[
				20.3677921295166,
				17.146345138549805,
				-89.07288360595703
			],
			"min":[
				-20.3677921295166,
				-17.07215118408203,
				-120.80992126464844
			],
			"type":"VEC3"
		},
		{
			"bufferView":13,
			"componentType":5126,
			"count":463,
			"type":"VEC3"
		},
		{
			"bufferView":14,
			"componentType":5126,
			"count":463,
			"type":"VEC2"
		},
		{
			"bufferView":15,
			"componentType":5123,
			"count":2568,
			"type":"SCALAR"
		},
		{
			"bufferView":16,
			"componentType":5126,
			"count":1180,
			"max":[
				14.090810775756836,
				15.69031810760498,
				-103.35054016113281
			],
			"min":[
				-14.090810775756836,
				11.141212463378906,
				-111.23341369628906
			],
			"type":"VEC3"
		},
		{
			"bufferView":17,
			"componentType":5126,
			"count":1180,
			"type":"VEC3"
		},
		{
			"bufferView":18,
			"componentType":5126,
			"count":1180,
			"type":"VEC2"
		},
		{
			"bufferView":19,
			"componentType":5123,
			"count":6576,
			"type":"SCALAR"
		},
		{
			"bufferView":20,
			"componentType":5126,
			"count":456,
			"max":[
				7.6985673904418945,
				25.78301429748535,
				-96.16669464111328
			],
			"min":[
				-7.6985673904418945,
				12.9104642868042,
				-105.1374282836914
			],
			"type":"VEC3"
		},
		{
			"bufferView":21,
			"componentType":5126,
			"count":456,
			"type":"VEC3"
		},
		{
			"bufferView":22,
			"componentType":5126,
			"count":456,
			"type":"VEC2"
		},
		{
			"bufferView":23,
			"componentType":5123,
			"count":2580,
			"type":"SCALAR"
		}
	],
	"bufferViews":[
		{
			"buffer":0,
			"byteLength":14088,
			"byteOffset":0,
			"target":34962
		},
		{
			"buffer":0,
			"byteLength":14088,
			"byteOffset":14088,
			"target":34962
		},
		{
			"buffer":0,
			"byteLength":9392,
			"byteOffset":28176,
			"target":34962
		},
		{
			"buffer":0,
			"byteLength":13392,
			"byteOffset":37568,
			"target":34963
		},
		{
			"buffer":0,
			"byteLength":20112,
			"byteOffset":50960,
			"target":34962
		},
		{
			"buffer":0,
			"byteLength":20112,
			"byteOffset":71072,
			"target":34962
		},
		{
			"buffer":0,
			"byteLength":13408,
			"byteOffset":91184,
			"target":34962
		},
		{
			"buffer":0,
			"byteLength":18936,
			"byteOffset":104592,
			"target":34963
		},
		{
			"buffer":0,
			"byteLength":22428,
			"byteOffset":123528,
			"target":34962
		},
		{
			"buffer":0,
			"byteLength":22428,
			"byteOffset":145956,
			"target":34962
		},
		{
			"buffer":0,
			"byteLength":14952,
			"byteOffset":168384,
			"target":34962
		},
		{
			"buffer":0,
			"byteLength":22224,
			"byteOffset":183336,
			"target":34963
		},
		{
			"buffer":0,
			"byteLength":5556,
			"byteOffset":205560,
			"target":34962
		},
		{
			"buffer":0,
			"byteLength":5556,
			"byteOffset":211116,
			"target":34962
		},
		{
			"buffer":0,
			"byteLength":3704,
			"byteOffset":216672,
			"target":34962
		},
		{
			"buffer":0,
			"byteLength":5136,
			"byteOffset":220376,
			"target":34963
		},
		{
			"buffer":0,
			"byteLength":14160,
			"byteOffset":225512,
			"target":34962
		},
		{
			"buffer":0,
			"byteLength":14160,
			"byteOffset":239672,
			"target":34962
		},
		{
			"buffer":0,
			"byteLength":9440,
			"byteOffset":253832,
			"target":34962
		},
		{
			"buffer":0,
			"byteLength":13152,
			"byteOffset":263272,
			"target":34963
		},
		{
			"buffer":0,
			"byteLength":5472,
			"byteOffset":276424,
			"target":34962
		},
		{
			"buffer":0,
			"byteLength":5472,
			"byteOffset":281896,
			"target":34962
		},
		{
			"buffer":0,
			"byteLength":3648,
			"byteOffset":287368,
			"target":34962
		},
		{
			"buffer":0,
			"byteLength":5160,
			"byteOffset":291016,
			"target":34963
		}
	],
	"samplers":[
		{
			"magFilter":9729,
			"minFilter":9987
		}
	],
	"buffers":[
		{
			"byteLength":296176,
			"uri":"penguin.bin"
		}
	]
}
